<mxfile host="app.diagrams.net" modified="2020-05-10T09:22:36.972Z" agent="5.0 (Windows NT 10.0; Win64; x64) AppleWebKit/537.36 (KHTML, like Gecko) Chrome/81.0.4044.138 Safari/537.36" etag="HOzHCjPSMA1Rb8vV_0mj" version="13.0.8" type="github">
  <diagram id="AoLe5V4ISyPj-6RMyFMR" name="Страница 1">
    <mxGraphModel dx="1182" dy="764" grid="1" gridSize="10" guides="1" tooltips="1" connect="1" arrows="1" fold="1" page="1" pageScale="1" pageWidth="827" pageHeight="1169" math="0" shadow="0">
      <root>
        <mxCell id="0" />
        <mxCell id="1" parent="0" />
        <mxCell id="TYSZjx4eLuvWmIhEO_7E-36" style="edgeStyle=orthogonalEdgeStyle;rounded=0;orthogonalLoop=1;jettySize=auto;html=1;exitX=1;exitY=0.5;exitDx=0;exitDy=0;entryX=0;entryY=0.5;entryDx=0;entryDy=0;" parent="1" source="pFTF1I5AWca8MZ5ZyV97-1" target="pFTF1I5AWca8MZ5ZyV97-18" edge="1">
          <mxGeometry relative="1" as="geometry" />
        </mxCell>
        <mxCell id="pFTF1I5AWca8MZ5ZyV97-1" value="Получение данных" style="rounded=0;whiteSpace=wrap;html=1;" parent="1" vertex="1">
          <mxGeometry x="160" y="190" width="100" height="70" as="geometry" />
        </mxCell>
        <mxCell id="pFTF1I5AWca8MZ5ZyV97-4" value="1" style="text;html=1;strokeColor=none;fillColor=none;align=center;verticalAlign=middle;whiteSpace=wrap;rounded=0;" parent="1" vertex="1">
          <mxGeometry x="240" y="240" width="20" height="20" as="geometry" />
        </mxCell>
        <mxCell id="pFTF1I5AWca8MZ5ZyV97-11" value="Запись в таблицу" style="rounded=0;whiteSpace=wrap;html=1;" parent="1" vertex="1">
          <mxGeometry x="445" y="285" width="95" height="60" as="geometry" />
        </mxCell>
        <mxCell id="pFTF1I5AWca8MZ5ZyV97-16" value="3" style="text;html=1;strokeColor=none;fillColor=none;align=center;verticalAlign=middle;whiteSpace=wrap;rounded=0;" parent="1" vertex="1">
          <mxGeometry x="520" y="325" width="20" height="20" as="geometry" />
        </mxCell>
        <mxCell id="pFTF1I5AWca8MZ5ZyV97-34" style="edgeStyle=orthogonalEdgeStyle;rounded=0;orthogonalLoop=1;jettySize=auto;html=1;exitX=1;exitY=0.5;exitDx=0;exitDy=0;" parent="1" edge="1">
          <mxGeometry relative="1" as="geometry">
            <mxPoint x="597" y="314.5" as="targetPoint" />
            <mxPoint x="540" y="314.5" as="sourcePoint" />
          </mxGeometry>
        </mxCell>
        <mxCell id="TYSZjx4eLuvWmIhEO_7E-25" style="edgeStyle=orthogonalEdgeStyle;rounded=0;orthogonalLoop=1;jettySize=auto;html=1;exitX=1;exitY=0.5;exitDx=0;exitDy=0;entryX=0;entryY=0.5;entryDx=0;entryDy=0;" parent="1" source="pFTF1I5AWca8MZ5ZyV97-18" target="pFTF1I5AWca8MZ5ZyV97-11" edge="1">
          <mxGeometry relative="1" as="geometry" />
        </mxCell>
        <mxCell id="pFTF1I5AWca8MZ5ZyV97-18" value="Распределение данных" style="rounded=0;whiteSpace=wrap;html=1;" parent="1" vertex="1">
          <mxGeometry x="300" y="230" width="100" height="70" as="geometry" />
        </mxCell>
        <mxCell id="pFTF1I5AWca8MZ5ZyV97-49" value="Обработанные данные" style="text;html=1;strokeColor=none;fillColor=none;align=center;verticalAlign=middle;whiteSpace=wrap;rounded=0;" parent="1" vertex="1">
          <mxGeometry x="570" y="285" width="40" height="20" as="geometry" />
        </mxCell>
        <mxCell id="X1KBWUIIKqeDnerTApMN-15" value="2" style="text;html=1;strokeColor=none;fillColor=none;align=center;verticalAlign=middle;whiteSpace=wrap;rounded=0;" parent="1" vertex="1">
          <mxGeometry x="380" y="280" width="20" height="20" as="geometry" />
        </mxCell>
        <mxCell id="YUrXhNPh0uZ1h1seXc1K-36" value="Системный администратор" style="text;html=1;strokeColor=none;fillColor=none;align=center;verticalAlign=middle;whiteSpace=wrap;rounded=0;" parent="1" vertex="1">
          <mxGeometry x="190" y="460" width="40" height="20" as="geometry" />
        </mxCell>
        <mxCell id="TYSZjx4eLuvWmIhEO_7E-1" value="" style="rounded=0;whiteSpace=wrap;html=1;fillColor=none;" parent="1" vertex="1">
          <mxGeometry x="30" y="100" width="720" height="410" as="geometry" />
        </mxCell>
        <mxCell id="TYSZjx4eLuvWmIhEO_7E-2" value="" style="rounded=0;whiteSpace=wrap;html=1;fillColor=none;" parent="1" vertex="1">
          <mxGeometry x="30" y="510" width="720" height="30" as="geometry" />
        </mxCell>
        <mxCell id="TYSZjx4eLuvWmIhEO_7E-3" value="" style="rounded=0;whiteSpace=wrap;html=1;fillColor=none;" parent="1" vertex="1">
          <mxGeometry x="580" y="510" width="170" height="30" as="geometry" />
        </mxCell>
        <mxCell id="TYSZjx4eLuvWmIhEO_7E-4" value="" style="rounded=0;whiteSpace=wrap;html=1;fillColor=none;" parent="1" vertex="1">
          <mxGeometry x="30" y="510" width="130" height="30" as="geometry" />
        </mxCell>
        <mxCell id="TYSZjx4eLuvWmIhEO_7E-5" value="NODE:" style="text;html=1;strokeColor=none;fillColor=none;align=center;verticalAlign=middle;whiteSpace=wrap;rounded=0;" parent="1" vertex="1">
          <mxGeometry x="30" y="510" width="43" height="20" as="geometry" />
        </mxCell>
        <mxCell id="TYSZjx4eLuvWmIhEO_7E-6" value="A3" style="text;html=1;strokeColor=none;fillColor=none;align=center;verticalAlign=middle;whiteSpace=wrap;rounded=0;" parent="1" vertex="1">
          <mxGeometry x="75" y="515" width="40" height="20" as="geometry" />
        </mxCell>
        <mxCell id="TYSZjx4eLuvWmIhEO_7E-7" value="TITLE:" style="text;html=1;strokeColor=none;fillColor=none;align=center;verticalAlign=middle;whiteSpace=wrap;rounded=0;" parent="1" vertex="1">
          <mxGeometry x="160" y="510" width="40" height="20" as="geometry" />
        </mxCell>
        <mxCell id="TYSZjx4eLuvWmIhEO_7E-8" value="NUMBER:" style="text;html=1;strokeColor=none;fillColor=none;align=center;verticalAlign=middle;whiteSpace=wrap;rounded=0;" parent="1" vertex="1">
          <mxGeometry x="580" y="510" width="63" height="20" as="geometry" />
        </mxCell>
        <mxCell id="TYSZjx4eLuvWmIhEO_7E-9" value="" style="rounded=0;whiteSpace=wrap;html=1;fillColor=none;" parent="1" vertex="1">
          <mxGeometry x="700" y="530" width="50" height="10" as="geometry" />
        </mxCell>
        <mxCell id="TYSZjx4eLuvWmIhEO_7E-10" value="Получение данных" style="text;html=1;strokeColor=none;fillColor=none;align=center;verticalAlign=middle;whiteSpace=wrap;rounded=0;shadow=0;" parent="1" vertex="1">
          <mxGeometry x="200" y="515" width="133" height="20" as="geometry" />
        </mxCell>
        <mxCell id="TYSZjx4eLuvWmIhEO_7E-11" value="" style="endArrow=classic;html=1;entryX=0;entryY=0.5;entryDx=0;entryDy=0;" parent="1" edge="1">
          <mxGeometry width="50" height="50" relative="1" as="geometry">
            <mxPoint x="109" y="205" as="sourcePoint" />
            <mxPoint x="159" y="205" as="targetPoint" />
          </mxGeometry>
        </mxCell>
        <mxCell id="TYSZjx4eLuvWmIhEO_7E-26" value="Распределенные данные" style="text;html=1;strokeColor=none;fillColor=none;align=center;verticalAlign=middle;whiteSpace=wrap;rounded=0;" parent="1" vertex="1">
          <mxGeometry x="414" y="207" width="66" height="40" as="geometry" />
        </mxCell>
        <mxCell id="TYSZjx4eLuvWmIhEO_7E-28" value="Необходимая информация" style="text;html=1;strokeColor=none;fillColor=none;align=center;verticalAlign=middle;whiteSpace=wrap;rounded=0;" parent="1" vertex="1">
          <mxGeometry x="452.5" y="110" width="80" height="30" as="geometry" />
        </mxCell>
        <mxCell id="TYSZjx4eLuvWmIhEO_7E-31" style="edgeStyle=orthogonalEdgeStyle;rounded=0;orthogonalLoop=1;jettySize=auto;html=1;exitX=0.5;exitY=1;exitDx=0;exitDy=0;entryX=0.5;entryY=0;entryDx=0;entryDy=0;" parent="1" target="pFTF1I5AWca8MZ5ZyV97-18" edge="1">
          <mxGeometry relative="1" as="geometry">
            <mxPoint x="492.5" y="140" as="sourcePoint" />
            <Array as="points">
              <mxPoint x="492" y="170" />
              <mxPoint x="350" y="170" />
            </Array>
          </mxGeometry>
        </mxCell>
        <mxCell id="TYSZjx4eLuvWmIhEO_7E-32" style="edgeStyle=orthogonalEdgeStyle;rounded=0;orthogonalLoop=1;jettySize=auto;html=1;exitX=0.5;exitY=1;exitDx=0;exitDy=0;entryX=0.5;entryY=0;entryDx=0;entryDy=0;" parent="1" target="pFTF1I5AWca8MZ5ZyV97-1" edge="1">
          <mxGeometry relative="1" as="geometry">
            <mxPoint x="492.5" y="140" as="sourcePoint" />
            <Array as="points">
              <mxPoint x="492" y="170" />
              <mxPoint x="210" y="170" />
            </Array>
          </mxGeometry>
        </mxCell>
        <mxCell id="TYSZjx4eLuvWmIhEO_7E-34" style="edgeStyle=orthogonalEdgeStyle;rounded=0;orthogonalLoop=1;jettySize=auto;html=1;exitX=0.5;exitY=1;exitDx=0;exitDy=0;entryX=0.5;entryY=0;entryDx=0;entryDy=0;" parent="1" target="pFTF1I5AWca8MZ5ZyV97-11" edge="1">
          <mxGeometry relative="1" as="geometry">
            <mxPoint x="492.5" y="140" as="sourcePoint" />
            <Array as="points">
              <mxPoint x="492" y="150" />
              <mxPoint x="492" y="150" />
            </Array>
          </mxGeometry>
        </mxCell>
        <mxCell id="TYSZjx4eLuvWmIhEO_7E-37" value="Данные АОи ПО" style="text;html=1;strokeColor=none;fillColor=none;align=center;verticalAlign=middle;whiteSpace=wrap;rounded=0;" parent="1" vertex="1">
          <mxGeometry x="270" y="200" width="70" height="20" as="geometry" />
        </mxCell>
        <mxCell id="TYSZjx4eLuvWmIhEO_7E-46" value="" style="endArrow=classic;html=1;entryX=0.5;entryY=1;entryDx=0;entryDy=0;exitX=0.5;exitY=0;exitDx=0;exitDy=0;" parent="1" edge="1" source="TYSZjx4eLuvWmIhEO_7E-49">
          <mxGeometry width="50" height="50" relative="1" as="geometry">
            <mxPoint x="520" y="405" as="sourcePoint" />
            <mxPoint x="520" y="345" as="targetPoint" />
            <Array as="points">
              <mxPoint x="520" y="375" />
            </Array>
          </mxGeometry>
        </mxCell>
        <mxCell id="TYSZjx4eLuvWmIhEO_7E-49" value="Таблица" style="text;html=1;strokeColor=none;fillColor=none;align=center;verticalAlign=middle;whiteSpace=wrap;rounded=0;" parent="1" vertex="1">
          <mxGeometry x="480" y="440" width="79.5" height="20" as="geometry" />
        </mxCell>
        <mxCell id="TYSZjx4eLuvWmIhEO_7E-55" value="" style="endArrow=classic;html=1;entryX=0.5;entryY=1;entryDx=0;entryDy=0;" parent="1" target="pFTF1I5AWca8MZ5ZyV97-11" edge="1">
          <mxGeometry width="50" height="50" relative="1" as="geometry">
            <mxPoint x="210" y="460" as="sourcePoint" />
            <mxPoint x="380" y="290" as="targetPoint" />
            <Array as="points">
              <mxPoint x="210" y="410" />
              <mxPoint x="493" y="410" />
            </Array>
          </mxGeometry>
        </mxCell>
        <mxCell id="TYSZjx4eLuvWmIhEO_7E-56" value="" style="endArrow=classic;html=1;entryX=0.5;entryY=1;entryDx=0;entryDy=0;" parent="1" target="pFTF1I5AWca8MZ5ZyV97-1" edge="1">
          <mxGeometry width="50" height="50" relative="1" as="geometry">
            <mxPoint x="210" y="460" as="sourcePoint" />
            <mxPoint x="380" y="290" as="targetPoint" />
          </mxGeometry>
        </mxCell>
        <mxCell id="TYSZjx4eLuvWmIhEO_7E-58" value="" style="endArrow=classic;html=1;exitX=0.5;exitY=0;exitDx=0;exitDy=0;entryX=0.5;entryY=1;entryDx=0;entryDy=0;" parent="1" source="YUrXhNPh0uZ1h1seXc1K-36" target="pFTF1I5AWca8MZ5ZyV97-18" edge="1">
          <mxGeometry width="50" height="50" relative="1" as="geometry">
            <mxPoint x="330" y="340" as="sourcePoint" />
            <mxPoint x="380" y="290" as="targetPoint" />
            <Array as="points">
              <mxPoint x="210" y="390" />
              <mxPoint x="350" y="390" />
            </Array>
          </mxGeometry>
        </mxCell>
        <mxCell id="oRXwLdaGu-NpRTj4cW7C-3" value="&lt;span style=&quot;font-family: monospace ; font-size: 0px&quot;&gt;%3CmxGraphModel%3E%3Croot%3E%3CmxCell%20id%3D%220%22%2F%3E%3CmxCell%20id%3D%221%22%20parent%3D%220%22%2F%3E%3CmxCell%20id%3D%222%22%20value%3D%22%D0%A1%D0%BE%D0%BE%D0%B1%D1%89%D0%B5%D0%BD%D0%B8%D0%B5%20%D1%81%20%D0%B4%D0%B0%D0%BD%D0%BD%D1%8B%D0%BC%D0%B8%22%20style%3D%22text%3Bhtml%3D1%3BstrokeColor%3Dnone%3BfillColor%3Dnone%3Balign%3Dcenter%3BverticalAlign%3Dmiddle%3BwhiteSpace%3Dwrap%3Brounded%3D0%3B%22%20vertex%3D%221%22%20parent%3D%221%22%3E%3CmxGeometry%20x%3D%22550%22%20y%3D%22285%22%20width%3D%2270%22%20height%3D%2230%22%20as%3D%22geometry%22%2F%3E%3C%2FmxCell%3E%3C%2Froot%3E%3C%2FmxGraphModel%3E&lt;/span&gt;" style="text;html=1;align=center;verticalAlign=middle;resizable=0;points=[];autosize=1;" parent="1" vertex="1">
          <mxGeometry x="99" y="178" width="20" height="20" as="geometry" />
        </mxCell>
        <mxCell id="oRXwLdaGu-NpRTj4cW7C-4" value="Данные АО" style="text;html=1;strokeColor=none;fillColor=none;align=center;verticalAlign=middle;whiteSpace=wrap;rounded=0;" parent="1" vertex="1">
          <mxGeometry x="79" y="175" width="70" height="30" as="geometry" />
        </mxCell>
        <mxCell id="I02ZxHUIjsJF-_PsATzA-1" value="" style="endArrow=classic;html=1;entryX=0;entryY=0.5;entryDx=0;entryDy=0;" edge="1" parent="1">
          <mxGeometry width="50" height="50" relative="1" as="geometry">
            <mxPoint x="110" y="244" as="sourcePoint" />
            <mxPoint x="160" y="244" as="targetPoint" />
          </mxGeometry>
        </mxCell>
        <mxCell id="I02ZxHUIjsJF-_PsATzA-2" value="&lt;span style=&quot;font-family: monospace ; font-size: 0px&quot;&gt;%3CmxGraphModel%3E%3Croot%3E%3CmxCell%20id%3D%220%22%2F%3E%3CmxCell%20id%3D%221%22%20parent%3D%220%22%2F%3E%3CmxCell%20id%3D%222%22%20value%3D%22%D0%A1%D0%BE%D0%BE%D0%B1%D1%89%D0%B5%D0%BD%D0%B8%D0%B5%20%D1%81%20%D0%B4%D0%B0%D0%BD%D0%BD%D1%8B%D0%BC%D0%B8%22%20style%3D%22text%3Bhtml%3D1%3BstrokeColor%3Dnone%3BfillColor%3Dnone%3Balign%3Dcenter%3BverticalAlign%3Dmiddle%3BwhiteSpace%3Dwrap%3Brounded%3D0%3B%22%20vertex%3D%221%22%20parent%3D%221%22%3E%3CmxGeometry%20x%3D%22550%22%20y%3D%22285%22%20width%3D%2270%22%20height%3D%2230%22%20as%3D%22geometry%22%2F%3E%3C%2FmxCell%3E%3C%2Froot%3E%3C%2FmxGraphModel%3E&lt;/span&gt;" style="text;html=1;align=center;verticalAlign=middle;resizable=0;points=[];autosize=1;" vertex="1" parent="1">
          <mxGeometry x="79" y="240" width="20" height="20" as="geometry" />
        </mxCell>
        <mxCell id="I02ZxHUIjsJF-_PsATzA-3" value="Данные ПО" style="text;html=1;strokeColor=none;fillColor=none;align=center;verticalAlign=middle;whiteSpace=wrap;rounded=0;" vertex="1" parent="1">
          <mxGeometry x="82" y="212" width="70" height="30" as="geometry" />
        </mxCell>
      </root>
    </mxGraphModel>
  </diagram>
</mxfile>
